# xmcd
#
# Track frame offsets: 
#        150
#        15600
#        28827
#        39337
#        51222
#        62617
#        74270
#        87262
#        105498
#        120089
#        132200
#        144809
#        163514
#        177985
#        191723
#
# Disc length: 2735 seconds
#
# Revision: 1
# Processed by: cddbd v1.5.2PL0 Copyright (c) Steve Scherf et al.
# Submitted via: ExactAudioCopy v0.99pb4
#
DISCID=be0aad0f
DTITLE=Miles Davis - Miles Davis [Disc 2]
DYEAR=2007
DGENRE=Jazz
TTITLE0=How Deep Is The Ocean [with the Charlie Parker Sextet]
TTITLE1=Night In Tunisia [with the Charlie Parker Sextet]
TTITLE2=Merry-Go-Round [with the Charlie Parker All Stars]
TTITLE3=Charlie's Wig [with the Charlie Parker Sextet]
TTITLE4=Buzzy [with the Charlie Parker Sextet]
TTITLE5=Perhaps [with the Charlie Parker All Stars]
TTITLE6=Drifting On A Reed [with the Charlie Parker Sextet]
TTITLE7=Out Of Nowehere [with the Charlie Parker Quintet]
TTITLE8=Rouge
TTITLE9=Yardbird Suite [with the Charlie Parker Sextet]
TTITLE10=Deception
TTITLE11=Conception [Miles Davis Sextet]
TTITLE12=Bird Of Paradise [with the Charlie Parker Quintet]
TTITLE13=Whispering
TTITLE14=Crazeology [with the Charlie Parker Sextet]
EXTD=YEAR: 2007
EXTT0=
EXTT1=
EXTT2=
EXTT3=
EXTT4=
EXTT5=
EXTT6=
EXTT7=
EXTT8=
EXTT9=
EXTT10=
EXTT11=
EXTT12=
EXTT13=
EXTT14=
PLAYORDER=
